<svg width="641" height="299" viewBox="0 0 641 299" fill="none" xmlns="http://www.w3.org/2000/svg">
<path d="M171.851 52.0078H51.2695L62.6597 85.0367L137.897 90.4269L165.298 171.533L154.621 246.499H199.673L210.35 171.533L286.651 52.0559H236.651L200.714 118.692L193.162 135.872L190.037 118.692L172.069 52.0559H171.851V52.0078Z" fill="white"/>
<path d="M271.38 246.499L299.244 52.0559H408.357L402.889 86.9359L339.348 86.4153L332.577 133.79L387.003 133.009L382.316 169.971L327.369 169.19L316.431 246.499H271.38Z" fill="white"/>
<path d="M436.571 52.0559L408.707 246.499H451.675L466.259 140.557L465.998 105.677L478.498 140.557L522.768 246.499H560.528L588.392 52.0559H544.903L532.664 152.791L530.841 185.849L520.945 152.791L475.633 52.0559H436.571Z" fill="white"/>
<path fill-rule="evenodd" clip-rule="evenodd" d="M115.284 280.624C105.392 269.229 100.932 254.104 103.059 239.168L111.99 176.462L99.3505 139.049L58.9954 136.158C38.513 134.691 20.8826 121.149 14.1906 101.743L2.79862 67.949C-2.60201 52.2883 -0.094514 35.7494 9.52679 22.262C19.1481 8.77459 34.6965 0.00233934 51.2687 0.00233934H116.031C118.903 -0.00471407 121.948 0.00688158 124.935 0.00222215H172.07C184.116 0.00222215 195.396 4.13524 204.361 11.2155C213.404 4.07474 224.728 0.00222215 236.652 0.00222215H286.652C288.769 0.00222215 290.867 0.130647 292.938 0.381899C295.008 0.131091 297.113 0.00222215 299.245 0.00222215H408.358C413.172 0.00222215 417.91 0.667957 422.451 1.94405C426.955 0.677178 431.694 0.00222215 436.572 0.00222215H475.634C488.656 0.00222215 500.909 4.8524 510.27 13.1809C519.519 4.94966 531.69 0.00222215 544.904 0.00222215H588.393C603.495 0.00222215 617.853 6.55421 627.746 17.9597C637.638 29.3652 642.091 44.5011 639.95 59.4436L612.086 253.887C608.411 279.525 586.441 298.565 560.529 298.565H522.769C509.303 298.565 496.681 293.381 487.222 284.556C477.863 293.289 465.318 298.565 451.676 298.565H408.708C393.606 298.565 379.248 292.013 369.356 280.607C366.694 277.538 364.426 274.2 362.574 270.667C353.799 287.403 336.273 298.565 316.432 298.565H271.381C257.976 298.565 245.157 293.403 235.527 284.266C226.134 293.173 213.462 298.565 199.674 298.565H154.622C139.528 298.565 125.177 292.02 115.284 280.624ZM165.299 171.538L137.898 90.4302L62.6603 85.04L51.2702 52.0111H171.852V52.0592H172.069L190.038 118.696L193.163 135.875L200.715 118.696L236.652 52.0592H286.651L286.65 52.0619H286.652L210.35 171.539L199.674 246.505H154.622L165.299 171.538ZM522.769 246.505H560.529L588.393 52.0619L588.393 52.0592H544.904L532.665 152.795L530.842 185.853L520.946 152.798L520.946 152.795L475.634 52.0592H436.572L408.708 246.502L408.708 246.505H451.676L466.26 140.563L466.259 140.561L465.999 105.683L478.499 140.561L478.499 140.563L522.769 246.502L522.769 246.505ZM271.38 246.502L299.245 52.0592H408.358L408.357 52.0619L402.89 86.942L339.349 86.4214L332.578 133.793L387.004 133.012L387.004 133.015L382.317 169.977L327.37 169.196L316.432 246.505H271.381L271.38 246.502Z" fill="black"/>
</svg>
